<svg xmlns="http://www.w3.org/2000/svg" width="11.817" height="20.121" viewBox="0 0 11.817 20.121">
  <path id="Path_1145" data-name="Path 1145" d="M747.935,961.755a2.211,2.211,0,0,1-.878-.631q-4.269-4.274-8.545-8.541a1.127,1.127,0,0,1-.353-1.224,1.314,1.314,0,0,1,.313-.488q4.425-4.438,8.861-8.864a1.1,1.1,0,0,1,1.641-.009c.235.228.472.455.684.7a1.074,1.074,0,0,1-.008,1.4c-.059.07-.124.135-.189.2q-3.6,3.6-7.211,7.208a1.6,1.6,0,0,0-.224.238.88.88,0,0,1,.205.116q3.643,3.636,7.281,7.277a1.082,1.082,0,0,1,.17,1.5,3.325,3.325,0,0,1-1.314,1.11Z" transform="translate(-738.098 -941.634)" fill="#fff"/>
</svg>
