<svg xmlns="http://www.w3.org/2000/svg" width="20.04" height="34.121" viewBox="0 0 20.04 34.121">
  <path id="Path_1169" data-name="Path 1169" d="M754.78,975.755a3.749,3.749,0,0,1-1.489-1.07q-7.239-7.248-14.491-14.484a1.912,1.912,0,0,1-.6-2.075,2.229,2.229,0,0,1,.53-.827q7.5-7.526,15.026-15.032a1.861,1.861,0,0,1,2.782-.016c.4.386.8.772,1.161,1.193a1.822,1.822,0,0,1-.014,2.382c-.1.119-.21.229-.32.339q-6.113,6.113-12.228,12.224a2.712,2.712,0,0,0-.381.4,1.492,1.492,0,0,1,.348.2q6.178,6.166,12.347,12.341a1.835,1.835,0,0,1,.288,2.545,5.639,5.639,0,0,1-2.228,1.882Z" transform="translate(-738.098 -941.634)" fill="#fcaf3d"/>
</svg>
