<svg xmlns="http://www.w3.org/2000/svg" width="36" height="34" viewBox="0 0 36 34">
  <g id="Group_1351" data-name="Group 1351" transform="translate(-143 -195)">
    <path id="Rectangle_115" data-name="Rectangle 115" d="M0,0H25A11,11,0,0,1,36,11V21A13,13,0,0,1,23,34H0a0,0,0,0,1,0,0V0A0,0,0,0,1,0,0Z" transform="translate(143 195)" fill="#fcaf3d"/>
    <path id="Polygon_1" data-name="Polygon 1" d="M4.624,1.593a1,1,0,0,1,1.752,0l3.809,6.925A1,1,0,0,1,9.309,10H1.691A1,1,0,0,1,.815,8.518Z" transform="translate(167 219) rotate(-180)" fill="#fff"/>
  </g>
</svg>
