<svg xmlns="http://www.w3.org/2000/svg" width="22.634" height="23.161" viewBox="0 0 22.634 23.161">
  <defs>
    <style>
      .cls-1 {
        fill: #9b9b9b;
      }
    </style>
  </defs>
  <g id="Grupo_1247" data-name="Grupo 1247" transform="translate(0 0)">
    <path id="Trazado_1148" data-name="Trazado 1148" class="cls-1" d="M403.5,1048a1.018,1.018,0,0,1,.7.9c.191,1.185.414,2.364.625,3.546a.89.89,0,0,0,.028.089h15.917a1.828,1.828,0,0,1,.431.03.824.824,0,0,1,.549,1.16c-.338.859-.686,1.715-1.031,2.572q-.841,2.09-1.683,4.179a.947.947,0,0,1-1.1.732H406.313c.062.369.116.713.178,1.056.033.182.024.432.138.523s.363.034.553.034q6.81,0,13.62,0a1.858,1.858,0,0,1,.43.038.813.813,0,0,1,.624.857.829.829,0,0,1-.786.768c-.053,0-.107,0-.16,0q-7.473,0-14.945-.005a1.289,1.289,0,0,1-.542-.131.784.784,0,0,1-.4-.623q-.577-3.361-1.153-6.721-.617-3.593-1.23-7.187c-.024-.142-.088-.162-.211-.161-.792,0-1.585.006-2.377,0a.835.835,0,0,1-.789-.579.821.821,0,0,1,.309-.92,2.573,2.573,0,0,1,.32-.165Z" transform="translate(-399.226 -1048)"/>
    <path id="Trazado_1149" data-name="Trazado 1149" class="cls-1" d="M492.35,1306.81a2.765,2.765,0,1,1-2.755,2.766A2.772,2.772,0,0,1,492.35,1306.81Z" transform="translate(-483.355 -1289.18)"/>
    <path id="Trazado_1150" data-name="Trazado 1150" class="cls-1" d="M606.486,1309.549a2.764,2.764,0,1,1,2.68,2.8A2.762,2.762,0,0,1,606.486,1309.549Z" transform="translate(-592.174 -1289.187)"/>
  </g>
</svg>
