<svg xmlns="http://www.w3.org/2000/svg" width="190.561" height="222.646" viewBox="0 0 190.561 222.646">
  <g id="Group_1352" data-name="Group 1352" transform="translate(-93.031 -53.354)">
    <g id="Group_1266" data-name="Group 1266" transform="translate(-74.617 -6.354)">
      <g id="Group_1265" data-name="Group 1265" transform="translate(167.648 59.709)">
        <path id="Path_1174" data-name="Path 1174" d="M187.864,60.328c21.167-4.5,43.265,16.28,33.073,38.421-3.464,7.468-14.773,18.172-21.366,22.219a2.958,2.958,0,0,0-1.551,3.457c.377,4.011,3.065,14.381,1.472,19.886a8.3,8.3,0,0,1-6.159,5.526,6.277,6.277,0,0,1-6.764-2.411c-2.347-3.108-14.132-40.4-17.169-52.376-2.937-12.127-3.3-22.269,7.909-30.071A28.253,28.253,0,0,1,187.864,60.328Zm6.65,36.345c3.919-2.518,7.916-7.454,6.437-11.586-1.622-4.232-6.835-5.526-9.424-4.737-3.172.918-2.433,3.286,1.209,15.861C192.978,97.363,193.782,97.192,194.514,96.673Z" transform="translate(-167.648 -59.709)" fill="#fcaf3d"/>
        <path id="Path_1175" data-name="Path 1175" d="M208.772,116.44a32.078,32.078,0,0,1-13.293,5.178c-11.992,1.65-23.407-7.411-19.758-19.054,2.945-9.644,10.7-14.353,20.818-14.118.711,0,1.181-.235,1.294-1.053a34.958,34.958,0,0,0-.7-7.881c-.114-.711-.469-1.06-1.06-1.06-1.415,0-3.763,2.12-4.936,3.762-2.945,4-3.649,7.056-7.525,6.707-3.3-.235-4.943-3.649-4.587-6.942C180.309,71.4,189.128,63.4,197.72,63.4c14.815,0,17.525,17.994,17.525,25.989S215.245,111.5,208.772,116.44ZM197.25,101.624c0-.825-.356-1.294-1.295-1.174-2.71.7-5.882,1.757-5.882,3.763,0,1.643,3.293,3.528,5.171,2.468C196.895,105.856,197.129,102.684,197.25,101.624Z" transform="translate(-122.524 -37.135)" fill="#fcaf3d"/>
        <path id="Path_1176" data-name="Path 1176" d="M204.444,86.3c2.233-3.179,5.057-4.588,7.646-4.588,3.172,0,6,2,7.76,5.526,1.295,2.831,2.7,8.592,3.763,10.59,3.528-.59,1.415-21.757,1.181-25.05-.356-5.647,3.763-9.3,7.994-9.3,3.059,0,6,1.878,7.411,6.117.939,2.824,3.179,20.114-.469,32.461-3.179,10.825-9.758,15.647-16,15.647-4.588,0-9.054-2.475-12-7.063-1.06-1.643-1.643-2.347-2.119-2.347-1.174,0-2.112,3.407-7.525,8.464a13.586,13.586,0,0,1-9.054,4,10.646,10.646,0,0,1-9.289-5.647c-6.124-9.993-.711-32.34,4.7-42.689,1.764-3.414,3.762-4.7,5.647-4.7a4.921,4.921,0,0,1,2.233.583,4.975,4.975,0,0,1,2.233,5.761q-1.238,6.881-2.12,13.763c-.235,1.65-1.06,9.41.235,10C202.446,89.245,202.325,89.245,204.444,86.3Z" transform="translate(-85.827 -36.634)" fill="#fcaf3d"/>
        <path id="Path_1177" data-name="Path 1177" d="M220.275,73.105C213.9,98.924,210,121.669,202.864,141.058c-1.693,4.445-4.765,5.818-7.525,5.213a6.575,6.575,0,0,1-5.057-6.046c-1.166-15.548,6.1-66.331,11.444-74.787a10.24,10.24,0,0,1,11.117-4.552C217.779,61.967,221.847,66.469,220.275,73.105Z" transform="translate(-30.057 -54.115)" fill="#fcaf3d"/>
      </g>
      <path id="Path_1178" data-name="Path 1178" d="M192.256,81.124a2.814,2.814,0,0,0,3.144-.434c2.112-1.942,5.79-6.017,5.74-10.939-.064-6.892-4.211-7.262-5.9-6.707-1.5.491-3.4,2.191-3.833,6.031a.737.737,0,0,1-1.166.512,4.914,4.914,0,0,0-3.13-1.1c-2.226.171-3.862,1.963-2.952,4.872C184.987,75.988,187.369,78.727,192.256,81.124Z" transform="translate(99.372 19.297)" fill="#fcaf3d"/>
    </g>
    <path id="Path_1286" data-name="Path 1286" d="M787.853,392.745H780.5a2.192,2.192,0,0,1-1.435-1.75c-.43-1.841-.909-3.671-1.347-5.511a.815.815,0,0,0-.584-.643c-.85-.317-1.694-.656-2.517-1.036a.8.8,0,0,0-.861.06c-1.631,1-3.271,1.975-4.911,2.957a1.8,1.8,0,0,1-2.671-.318q-2.069-2.067-4.136-4.136a1.819,1.819,0,0,1-.346-2.713c.991-1.655,1.98-3.312,2.984-4.96a.721.721,0,0,0,.044-.761q-.567-1.267-1.055-2.57a.822.822,0,0,0-.649-.578c-1.89-.465-3.774-.952-5.661-1.432a1.784,1.784,0,0,1-1.59-2.058q0-2.981,0-5.961a1.77,1.77,0,0,1,1.562-2.026c1.9-.485,3.807-.974,5.715-1.443a.778.778,0,0,0,.612-.547c.326-.867.672-1.727,1.054-2.57a.761.761,0,0,0-.046-.812c-1.014-1.663-2.013-3.336-3.011-5.009a1.766,1.766,0,0,1,.327-2.58q2.1-2.11,4.215-4.215a1.786,1.786,0,0,1,2.627-.313c1.656.991,3.311,1.982,4.959,2.985a.759.759,0,0,0,.811.055c.842-.385,1.7-.733,2.57-1.054a.809.809,0,0,0,.559-.664q.693-2.951,1.418-5.894a1.777,1.777,0,0,1,1.978-1.56q3.064-.007,6.128,0a1.778,1.778,0,0,1,1.977,1.561c.479,1.944.957,3.889,1.4,5.84a.917.917,0,0,0,.679.753c.8.283,1.589.618,2.362.974a.889.889,0,0,0,.962-.04c1.625-1.005,3.27-1.978,4.91-2.959a1.786,1.786,0,0,1,2.627.314q2.09,2.086,4.176,4.176a1.8,1.8,0,0,1,.339,2.669c-.991,1.655-1.98,3.312-2.986,4.959a.76.76,0,0,0-.044.812c.376.826.724,1.666,1.033,2.518a.846.846,0,0,0,.689.606c1.912.452,3.813.953,5.728,1.39a2.135,2.135,0,0,1,1.716,1.387V368a2.133,2.133,0,0,1-1.714,1.387c-1.933.44-3.851.941-5.78,1.4a.77.77,0,0,0-.618.539c-.324.867-.672,1.726-1.052,2.57a.762.762,0,0,0,.037.812c1.015,1.661,2.012,3.334,3.01,5.005a1.767,1.767,0,0,1-.312,2.581q-2.084,2.09-4.173,4.174a1.818,1.818,0,0,1-2.711.344c-1.654-.991-3.31-1.98-4.957-2.983a.719.719,0,0,0-.76-.047q-1.266.568-2.568,1.055a.815.815,0,0,0-.58.646c-.439,1.838-.917,3.667-1.347,5.508A2.191,2.191,0,0,1,787.853,392.745ZM784.2,372.683a8.356,8.356,0,1,0-8.377-8.348A8.377,8.377,0,0,0,784.2,372.683Z" transform="translate(-587.786 -116.745)" fill="#5ccbc2"/>
  </g>
</svg>
