<svg xmlns="http://www.w3.org/2000/svg" width="76" height="76" viewBox="0 0 76 76">
  <g id="Group_1352" data-name="Group 1352" transform="translate(-149 -4)">
    <circle id="Ellipse_19" data-name="Ellipse 19" cx="38" cy="38" r="38" transform="translate(149 4)" fill="#5ccbc2"/>
    <path id="Path_1296" data-name="Path 1296" d="M393.035,1100.358a21.253,21.253,0,0,0,.538,2.681,19.093,19.093,0,0,0,1.276,2.869c.37.7.882,1.317,1.318,1.979a.692.692,0,0,0,.7.353c.306-.027.618.011.925-.014.136-.011.346-.075.38-.17a.56.56,0,0,0-.065-.481c-.964-.922-1.039-2.214-1.319-3.413a2.8,2.8,0,0,1,.246-2.011c.64-1.192,1.26-2.4,1.915-3.579a.569.569,0,0,1,.484-.19c1.434.213,2.858.518,4.3.669,1.637.172,3.286.23,4.931.3.52.023.663.149.542.7a17.509,17.509,0,0,0-.412,5.508,14.342,14.342,0,0,0,.487,2.194.613.613,0,0,0,.706.469c.628-.035,1.26-.01,1.91-.01.075-.508-.259-.731-.529-1a.605.605,0,0,1-.2-.407,11.265,11.265,0,0,1,2.2-5.442,1.968,1.968,0,0,0,.147-.245l.111.052c.031.167.057.335.093.5a17.33,17.33,0,0,0,2.873,6.315.661.661,0,0,0,.455.232c.492.03.988-.005,1.48.017.332.015.44-.175.362-.44a1.535,1.535,0,0,0-.408-.771,2.083,2.083,0,0,1-.789-1.419c-.244-1.569-.481-3.142-.644-4.723-.125-1.214-.112-2.443-.2-3.662a3.029,3.029,0,0,1,.42-1.792,8.078,8.078,0,0,1,4.846-4.057,4.184,4.184,0,0,0,1.508-.794,1.667,1.667,0,0,0,.114-2.619,2.258,2.258,0,0,1-.642-1.336,3.72,3.72,0,0,0-1.915-2.7.866.866,0,0,1-.424-.623,11.45,11.45,0,0,0-.453-1.664c-.293-.755-.943-.885-1.457-.28a10.718,10.718,0,0,0-1.452,1.988c-1.32,2.586-3.529,3.652-6.139,4.1a27.982,27.982,0,0,1-7.657-.054,70.1,70.1,0,0,0-9.536-.815,15.337,15.337,0,0,0-2.522.292,3.251,3.251,0,0,1-2.158-.281,10.008,10.008,0,0,1-4.654-4.655,5.538,5.538,0,0,1-.571-2.607c.035-1.608.146-3.22.07-4.823a4.658,4.658,0,0,0-2.719-4.065,3.26,3.26,0,0,0-1.382-.288,1.423,1.423,0,0,0-1.411,1.04,1.581,1.581,0,0,0,.507,1.815,9.31,9.31,0,0,0,1.286.852,2.376,2.376,0,0,1,1.234,2.12,13.235,13.235,0,0,1-.032,2.408,10.341,10.341,0,0,0,3.236,9.122,31.234,31.234,0,0,0,2.817,2.417,1.308,1.308,0,0,1,.582,1.386,16.858,16.858,0,0,0-.009,5.809,6.721,6.721,0,0,1-.246,3.194,6.506,6.506,0,0,0,.244,4.517c.4,1,.9,1.966,1.368,2.943a.744.744,0,0,0,.826.467c.29-.033.588.018.878-.016.161-.019.4-.1.444-.217a.738.738,0,0,0-.091-.564,7.655,7.655,0,0,1-.932-4.344,2.519,2.519,0,0,1,.421-1.048,1.784,1.784,0,0,1,.407-.457C392.094,1101.186,392.551,1100.788,393.035,1100.358Zm28.589-13.018-.052-.077h-.139c-.31.006-.554-.143-.5-.468.027-.172.371-.46.42-.43a5.36,5.36,0,0,1,.743.645Z" transform="translate(-214.502 -1048.249)" fill="#fff"/>
  </g>
</svg>
