<svg xmlns="http://www.w3.org/2000/svg" width="76" height="76" viewBox="0 0 76 76">
  <g id="Group_1351" data-name="Group 1351" transform="translate(-56 -4)">
    <circle id="Ellipse_18" data-name="Ellipse 18" cx="38" cy="38" r="38" transform="translate(56 4)" fill="#5ccbc2"/>
    <g id="Group_1343" data-name="Group 1343" transform="translate(-299.291 -1015.791)">
      <path id="Path_1171" data-name="Path 1171" d="M605.654,1047.518c-.082.323-.156.648-.247.968a6.316,6.316,0,0,1-5.976,4.6c-.939.013-1.877,0-2.841,0l-.263,1.2-9.618-3.591c.282-.761.553-1.494.825-2.227q1.9-5.111,3.793-10.223a1.373,1.373,0,0,1,1.027-1.006,1.27,1.27,0,0,1,1.5,1.082c.233,1.113.454,2.229.682,3.343.022.109.052.217.089.365h1.8a3.862,3.862,0,0,1,4.128,3.3,1.257,1.257,0,0,0,.066.159h2.414c.309,0,.62.024.926,0a1.524,1.524,0,0,1,1.7.933Z" transform="translate(-190.79)" fill="#fff"/>
      <path id="Path_1172" data-name="Path 1172" d="M395.9,1142.135l-11.544-1.038v.469q0,4.98,0,9.96c0,1.049-.472,1.527-1.509,1.527q-2.317,0-4.633,0a1.29,1.29,0,0,1-1.44-1.426q0-7.829,0-15.658a7.639,7.639,0,0,1,.866-3.569c.037-.072.07-.147.119-.25-.6-.034-1.172-.021-1.73-.106a5.057,5.057,0,0,1,.772-10.059q1.811-.006,3.623,0a1.273,1.273,0,1,1-.009,2.531c-1.179,0-2.359,0-3.538,0a2.533,2.533,0,1,0-.017,5.064c.407,0,.815-.014,1.221,0a5.727,5.727,0,0,0,3.385-.658,5.408,5.408,0,0,1,2.81-.608q5.286-.007,10.573,0a1.439,1.439,0,0,1,.489.093c3.114,1.158,6.224,2.326,9.341,3.476.313.116.349.261.287.561-.494,2.408-.973,4.819-1.451,7.23a2.608,2.608,0,0,0-.029.5q0,5.719,0,11.438c0,1.039-.478,1.515-1.521,1.515q-2.317,0-4.633,0a1.289,1.289,0,0,1-1.428-1.438q0-4.516,0-9.032Z" transform="translate(0 -75.227)" fill="#fff"/>
    </g>
  </g>
</svg>
