<svg xmlns="http://www.w3.org/2000/svg" xmlns:xlink="http://www.w3.org/1999/xlink" width="112" height="112" viewBox="0 0 112 112">
  <defs>
    <filter id="Ellipse_18">
      <feOffset dy="3" input="SourceAlpha"/>
      <feGaussianBlur stdDeviation="6.5" result="blur"/>
      <feFlood flood-opacity="0.161" result="color"/>
      <feComposite operator="out" in="SourceGraphic" in2="blur"/>
      <feComposite operator="in" in="color"/>
      <feComposite operator="in" in2="SourceGraphic"/>
    </filter>
  </defs>
  <g id="Group_1354" data-name="Group 1354" transform="translate(0.248 0.566)">
    <g data-type="innerShadowGroup">
      <circle id="Ellipse_18-2" data-name="Ellipse 18" cx="56" cy="56" r="56" transform="translate(-0.248 -0.566)" fill="#9b9b9b"/>
      <g transform="matrix(1, 0, 0, 1, -0.25, -0.57)" filter="url(#Ellipse_18)">
        <circle id="Ellipse_18-3" data-name="Ellipse 18" cx="56" cy="56" r="56" fill="#fff"/>
      </g>
    </g>
    <g id="Group_1353" data-name="Group 1353" transform="translate(-26.955 -92.762)">
      <path id="Path_1298" data-name="Path 1298" d="M54.726,149.758c0-4-.024-8.01.008-12.015a16.2,16.2,0,0,1,1.965-7.9,13.216,13.216,0,0,1,10.015-6.683,25.142,25.142,0,0,1,3.935-.284q10.735-.04,21.471,0a.951.951,0,0,0,.955-.5,4.213,4.213,0,0,1,3.532-2.1c3.176-.1,6.357-.063,9.536-.07a4.066,4.066,0,0,1,.868.12,4.517,4.517,0,0,1,3.857,4.344c.131,3.139.062,6.286.065,9.429a4.862,4.862,0,0,1-.147.992,4.429,4.429,0,0,1-2.156,3.1c-.386.22-.353.513-.353.845q0,10.788.006,21.576a18.914,18.914,0,0,1-1.343,7.619,13.027,13.027,0,0,1-9.95,7.883,18.291,18.291,0,0,1-3.608.4q-12.054.047-24.108-.006a15.46,15.46,0,0,1-7.578-1.949c-4.219-2.368-6.259-6.168-6.8-10.832a56.494,56.494,0,0,1-.181-5.9c-.026-2.684-.007-5.368-.007-8.052ZM92.2,126.91c-.256-.012-.4-.024-.547-.024q-10.738,0-21.476.007a18.331,18.331,0,0,0-2.44.159,9.938,9.938,0,0,0-6.442,3.168,10.6,10.6,0,0,0-2.515,7.016c-.086,4.718-.047,9.437-.049,14.156,0,3.544-.008,7.089.039,10.633a11.3,11.3,0,0,0,.9,4.193c.265-.177.49-.324.713-.474q4.585-3.084,9.169-6.169a6.012,6.012,0,0,1,4.728-.933,6.945,6.945,0,0,1,3.18,1.809,5.748,5.748,0,0,0,3.264,1.465,5.944,5.944,0,0,0,4.7-1.471c3.517-3.042,7.061-6.053,10.568-9.107a5.836,5.836,0,0,1,5.458-1.479,17.485,17.485,0,0,1,2.752,1.181V138.966c-.842,0-1.635.008-2.428,0-1.674-.02-3.353.035-5.019-.093a4.571,4.571,0,0,1-4.458-4.446c-.144-2.214-.077-4.442-.1-6.664C92.2,127.494,92.2,127.227,92.2,126.91Zm11.071,1.685c.28.254.414.384.556.5a1.644,1.644,0,0,0,2.273-.049,1.58,1.58,0,0,0,.1-2.264q-1.7-1.8-3.512-3.5a1.605,1.605,0,0,0-2.232.027q-1.771,1.692-3.459,3.471a1.6,1.6,0,0,0,.075,2.269,1.648,1.648,0,0,0,2.274.052c.151-.126.3-.259.555-.484v.81c0,1.677-.013,3.354.007,5.031a1.679,1.679,0,1,0,3.351,0c.022-1.446.007-2.893.007-4.339C103.275,129.661,103.275,129.207,103.275,128.594Z" fill="#fff"/>
      <path id="Path_1299" data-name="Path 1299" d="M134.8,206.73a6.378,6.378,0,1,1,6.387-6.389A6.388,6.388,0,0,1,134.8,206.73Z" transform="translate(-61.348 -61.399)" fill="#fff"/>
    </g>
  </g>
</svg>
