<svg xmlns="http://www.w3.org/2000/svg" xmlns:xlink="http://www.w3.org/1999/xlink" width="84.868" height="84.01" viewBox="0 0 84.868 84.01">
  <defs>
    <filter id="Path_1197" x="0" y="0" width="84.868" height="84.01" filterUnits="userSpaceOnUse">
      <feOffset dy="7" input="SourceAlpha"/>
      <feGaussianBlur stdDeviation="3" result="blur"/>
      <feFlood flood-opacity="0.141"/>
      <feComposite operator="in" in2="blur"/>
      <feComposite in="SourceGraphic"/>
    </filter>
  </defs>
  <g id="Group_1302" data-name="Group 1302" transform="translate(-62.324 -290.75)">
    <g transform="matrix(1, 0, 0, 1, 62.32, 290.75)" filter="url(#Path_1197)">
      <g id="Path_1197-2" data-name="Path 1197" transform="translate(9 2)" fill="#fff">
        <path d="M 33.43391036987305 63.51051330566406 C 29.25277709960938 63.51051330566406 25.19833183288574 62.70280075073242 21.38318824768066 61.10982513427734 C 17.69901084899902 59.5715217590332 14.39027690887451 57.36931228637695 11.54888820648193 54.56436920166016 C 8.709743499755859 51.76162338256836 6.481266021728516 48.49923324584961 4.925354957580566 44.86782455444336 C 3.316010475158691 41.11166763305664 2.499999284744263 37.12052154541016 2.499999284744263 33.00525665283203 C 2.499999284744263 28.88998985290527 3.316010475158691 24.89885711669922 4.925354957580566 21.1427001953125 C 6.481266021728516 17.51128959655762 8.709743499755859 14.2489013671875 11.54888820648193 11.44615650177002 C 14.39027690887451 8.641201019287109 17.69901084899902 6.438990116119385 21.38318824768066 4.900690078735352 C 25.19833183288574 3.307712316513062 29.25277709960938 2.500001192092896 33.43391036987305 2.500001192092896 C 37.61504364013672 2.500001192092896 41.66948699951172 3.307712316513062 45.48464202880859 4.900690078735352 C 49.1688232421875 6.438990116119385 52.47755432128906 8.641201019287109 55.31893157958984 11.44615650177002 C 58.15807723999023 14.2489013671875 60.38655471801758 17.51128959655762 61.94246673583984 21.1427001953125 C 63.55181121826172 24.89885711669922 64.36782073974609 28.88998985290527 64.36782073974609 33.00525665283203 C 64.36782073974609 37.12052154541016 63.55181121826172 41.11166763305664 61.94246673583984 44.86782455444336 C 60.38655471801758 48.49923324584961 58.15807723999023 51.76162338256836 55.31893157958984 54.56436920166016 C 52.47755432128906 57.36931228637695 49.1688232421875 59.5715217590332 45.48464202880859 61.10982513427734 C 41.66949844360352 62.70280075073242 37.61504364013672 63.51051330566406 33.43391036987305 63.51051330566406 Z" stroke="none"/>
        <path d="M 33.43391036987305 5.000003814697266 C 29.585205078125 5.000003814697266 25.85483169555664 5.742763519287109 22.34644317626953 7.207668304443359 C 18.95937728881836 8.621910095214844 15.9174690246582 10.64653778076172 13.30521774291992 13.22529602050781 C 10.69742965698242 15.79964447021484 8.651191711425781 18.79469680786133 7.223323822021484 22.12728500366211 C 5.748031616210938 25.57052230834961 5.000003814697266 29.23040390014648 5.000003814697266 33.00525665283203 C 5.000003814697266 36.78010940551758 5.748031616210938 40.43998718261719 7.223323822021484 43.88324356079102 C 8.651191711425781 47.21581649780273 10.69742965698242 50.21088409423828 13.30521774291992 52.78522872924805 C 15.9174690246582 55.36399078369141 18.95937728881836 57.38860321044922 22.34644317626953 58.80284118652344 C 25.85483169555664 60.26774978637695 29.585205078125 61.0105094909668 33.43391036987305 61.0105094909668 C 37.28261566162109 61.0105094909668 41.01299285888672 60.26774978637695 44.52137756347656 58.80284118652344 C 47.90844345092773 57.38860321044922 50.95035171508789 55.36399078369141 53.56260299682617 52.78522872924805 C 56.17039108276367 50.21088409423828 58.21662902832031 47.21581649780273 59.64449691772461 43.88324356079102 C 61.11978912353516 40.43998718261719 61.86781692504883 36.78010940551758 61.86781692504883 33.00525665283203 C 61.86781692504883 29.23040390014648 61.11978912353516 25.57052230834961 59.64449691772461 22.12728500366211 C 58.21662902832031 18.79469680786133 56.17039108276367 15.79964447021484 53.56260299682617 13.22529602050781 C 50.95035171508789 10.64653778076172 47.90844345092773 8.621910095214844 44.52137756347656 7.207668304443359 C 41.01299285888672 5.742763519287109 37.28261566162109 5.000003814697266 33.43391036987305 5.000003814697266 M 33.43391036987305 0 C 51.89894866943359 0 66.86782073974609 14.77696228027344 66.86782073974609 33.00525665283203 C 66.86782073974609 51.23356246948242 51.89894866943359 66.01051330566406 33.43391036987305 66.01051330566406 C 14.9688720703125 66.01051330566406 0 51.23356246948242 0 33.00525665283203 C 0 14.77696228027344 14.9688720703125 0 33.43391036987305 0 Z" stroke="none" fill="#909090"/>
      </g>
    </g>
    <g id="Group_1300" data-name="Group 1300" transform="translate(-281.501 -716.653)">
      <path id="Path_1199" data-name="Path 1199" d="M373.4,1155.622a5.8,5.8,0,0,1-.775-.338,1.961,1.961,0,0,1-.989-1.734c-.01-4.284-.035-8.569.008-12.853a6.357,6.357,0,0,1,12.645-.655,11.378,11.378,0,0,1,.074,1.6c.011.83,0,1.66,0,2.49a2.129,2.129,0,0,1-4.157.79c-.009-.023-.023-.045-.09-.066v.291c0,1.517.006,3.034,0,4.552a2.124,2.124,0,0,1-4.119.834,1.148,1.148,0,0,0-.129-.281q0,1.513,0,3.026a2.12,2.12,0,0,1-1.737,2.313c-.017,0-.03.022-.045.034Z" transform="translate(0 -100.304)" fill="#909090"/>
      <path id="Path_1200" data-name="Path 1200" d="M598.341,1155.587c-.142-.048-.287-.091-.427-.145a2.075,2.075,0,0,1-1.349-1.913c-.014-1.1,0-2.21-.036-3.323l-.08.232a2.125,2.125,0,0,1-2.206,1.46,2.054,2.054,0,0,1-1.912-1.972c-.046-1.6-.019-3.2-.023-4.807a.71.71,0,0,0-.055-.329c-.039.1-.075.207-.119.308a2.122,2.122,0,0,1-2.33,1.255,2.086,2.086,0,0,1-1.731-2c-.023-1.363-.05-2.731.044-4.089a6.352,6.352,0,0,1,12.533-.689c.058.258.1.52.147.78v13.456a2.25,2.25,0,0,1-.908,1.381,7.208,7.208,0,0,1-.864.394Z" transform="translate(-199.905 -100.269)" fill="#909090"/>
      <path id="Path_1201" data-name="Path 1201" d="M454.135,1026c.586.057,1.173.1,1.757.174a12.978,12.978,0,0,1,4.1,1.04,5.764,5.764,0,0,1,1.463.97,1.9,1.9,0,0,1,0,2.886,5.988,5.988,0,0,1-2.645,1.4,21.452,21.452,0,0,1-7.435.709,16.842,16.842,0,0,1-4.779-.9,5.393,5.393,0,0,1-2.058-1.193,1.941,1.941,0,0,1-.007-2.938,5.889,5.889,0,0,1,2.488-1.344,18.194,18.194,0,0,1,4.375-.757c.15-.01.3-.035.45-.052Zm-1.148,1.713a17.766,17.766,0,0,0-5.459.752,8.305,8.305,0,0,0-1.632.789c-.416.252-.409.464-.008.729a6.424,6.424,0,0,0,1.229.649,14.24,14.24,0,0,0,4.21.823,20.756,20.756,0,0,0,6.518-.492,5.963,5.963,0,0,0,2.262-.977c.371-.288.394-.478,0-.719a8.289,8.289,0,0,0-1.628-.8A17.755,17.755,0,0,0,452.987,1027.713Z" transform="translate(-66.729)" fill="#909090"/>
    </g>
  </g>
</svg>
