<svg xmlns="http://www.w3.org/2000/svg" width="23.991" height="27.491" viewBox="0 0 23.991 27.491">
  <g id="Group_22" data-name="Group 22" opacity="0.3">
    <g id="Group_21" data-name="Group 21" transform="translate(0)">
      <path id="Path_79" data-name="Path 79" d="M9.747,3.282A9,9,0,0,0,3,12v6a1,1,0,0,1-1,1,2,2,0,1,0,0,4H21.987a2,2,0,1,0,0-4,1,1,0,0,1-1-1V12a9,9,0,0,0-6.748-8.714V2.249a2.248,2.248,0,1,0-4.5,0ZM8.5,23.992h7a3.5,3.5,0,1,1-7,0Z" transform="translate(0)" fill="#3b3b3b" fill-rule="evenodd"/>
    </g>
  </g>
</svg>
