<svg xmlns="http://www.w3.org/2000/svg" xmlns:xlink="http://www.w3.org/1999/xlink" width="112" height="112" viewBox="0 0 112 112">
  <defs>
    <filter id="Ellipse_33">
      <feOffset dy="3" input="SourceAlpha"/>
      <feGaussianBlur stdDeviation="6.5" result="blur"/>
      <feFlood flood-opacity="0.161" result="color"/>
      <feComposite operator="out" in="SourceGraphic" in2="blur"/>
      <feComposite operator="in" in="color"/>
      <feComposite operator="in" in2="SourceGraphic"/>
    </filter>
  </defs>
  <g id="Group_1355" data-name="Group 1355" transform="translate(-33 -207)">
    <g data-type="innerShadowGroup">
      <circle id="Ellipse_33-2" data-name="Ellipse 33" cx="56" cy="56" r="56" transform="translate(33 207)" fill="#909090"/>
      <g transform="matrix(1, 0, 0, 1, 33, 207)" filter="url(#Ellipse_33)">
        <circle id="Ellipse_33-3" data-name="Ellipse 33" cx="56" cy="56" r="56" fill="#fff"/>
      </g>
    </g>
    <g id="pawprint" transform="translate(64 242)">
      <path id="Path_1137" data-name="Path 1137" d="M91.386,187.511a12.078,12.078,0,0,0-20.339,0L65.668,195.9a7.645,7.645,0,0,0,9.513,11.125l.1-.045a15.029,15.029,0,0,1,11.967.045,7.6,7.6,0,0,0,3.068.649,7.7,7.7,0,0,0,1.711-.194,7.646,7.646,0,0,0,4.735-11.58Zm0,0" transform="translate(-58.214 -164.806)" fill="#fff"/>
      <path id="Path_1138" data-name="Path 1138" d="M8.9,112.492a5.863,5.863,0,0,0,3.423-3.631,7.575,7.575,0,0,0-.134-5.224,7.581,7.581,0,0,0-3.4-3.965,5.864,5.864,0,0,0-4.971-.4C.6,100.507-.872,104.479.529,108.127a7.083,7.083,0,0,0,6.37,4.736A5.553,5.553,0,0,0,8.9,112.492Zm0,0" transform="translate(0 -89.472)" fill="#fff"/>
      <path id="Path_1139" data-name="Path 1139" d="M131.7,16.6c4.018,0,7.286-3.724,7.286-8.3S135.718,0,131.7,0s-7.286,3.725-7.286,8.3S127.682,16.6,131.7,16.6Zm0,0" transform="translate(-112.36 0)" fill="#fff"/>
      <path id="Path_1140" data-name="Path 1140" d="M288.584,55h0a5.939,5.939,0,0,0,1.876.3,7.552,7.552,0,0,0,6.875-5.41,8.141,8.141,0,0,0-.116-5.617,6.159,6.159,0,0,0-9.131-3.035,8.143,8.143,0,0,0-3.455,4.43C283.31,49.648,285.082,53.833,288.584,55Zm0,0" transform="translate(-256.66 -36.352)" fill="#fff"/>
      <path id="Path_1141" data-name="Path 1141" d="M387.5,172.157h0c-2.771-2.047-6.914-1.16-9.238,1.979s-1.958,7.361.808,9.409a5.7,5.7,0,0,0,3.421,1.1,7.367,7.367,0,0,0,5.818-3.081C390.632,178.427,390.27,174.206,387.5,172.157Zm0,0" transform="translate(-340.235 -154.751)" fill="#fff"/>
    </g>
  </g>
</svg>
