<svg xmlns="http://www.w3.org/2000/svg" width="23.611" height="24.161" viewBox="0 0 23.611 24.161">
  <g id="Group_1260" data-name="Group 1260" transform="translate(0)">
    <path id="Path_1148" data-name="Path 1148" d="M403.688,1048a1.061,1.061,0,0,1,.73.943c.2,1.236.432,2.466.652,3.7a.909.909,0,0,0,.029.092h16.6a1.913,1.913,0,0,1,.45.031.86.86,0,0,1,.572,1.21c-.353.9-.716,1.789-1.075,2.683q-.877,2.18-1.756,4.36a.988.988,0,0,1-1.151.764H406.619c.064.385.121.744.186,1.1.035.19.025.451.144.545s.379.036.577.036q7.1,0,14.208,0a1.937,1.937,0,0,1,.448.04.849.849,0,0,1,.651.894.865.865,0,0,1-.82.8c-.055,0-.111,0-.167,0q-7.8,0-15.59-.005a1.343,1.343,0,0,1-.565-.137.819.819,0,0,1-.417-.65q-.6-3.506-1.2-7.011-.643-3.749-1.284-7.5c-.025-.149-.092-.169-.221-.168-.826,0-1.653.006-2.479,0a.871.871,0,0,1-.823-.6.856.856,0,0,1,.323-.96,2.7,2.7,0,0,1,.334-.172Z" transform="translate(-399.226 -1048)" fill="#fff"/>
    <path id="Path_1149" data-name="Path 1149" d="M492.469,1306.81a2.885,2.885,0,1,1-2.874,2.885A2.892,2.892,0,0,1,492.469,1306.81Z" transform="translate(-483.086 -1288.419)" fill="#fff"/>
    <path id="Path_1150" data-name="Path 1150" d="M606.486,1309.667a2.884,2.884,0,1,1,2.8,2.917A2.881,2.881,0,0,1,606.486,1309.667Z" transform="translate(-591.556 -1288.426)" fill="#fff"/>
  </g>
</svg>
