<svg xmlns="http://www.w3.org/2000/svg" xmlns:xlink="http://www.w3.org/1999/xlink" width="84.868" height="84.011" viewBox="0 0 84.868 84.011">
  <defs>
    <filter id="Path_1144" x="0" y="0" width="84.868" height="84.011" filterUnits="userSpaceOnUse">
      <feOffset dy="7" input="SourceAlpha"/>
      <feGaussianBlur stdDeviation="3" result="blur"/>
      <feFlood flood-opacity="0.141"/>
      <feComposite operator="in" in2="blur"/>
      <feComposite in="SourceGraphic"/>
    </filter>
  </defs>
  <g id="Group_1301" data-name="Group 1301" transform="translate(-62.324 -183.24)">
    <g transform="matrix(1, 0, 0, 1, 62.32, 183.24)" filter="url(#Path_1144)">
      <g id="Path_1144-2" data-name="Path 1144" transform="translate(9 2)" fill="#fff">
        <path d="M 33.43391036987305 63.51051330566406 C 29.25277709960938 63.51051330566406 25.19833183288574 62.70280075073242 21.38318824768066 61.10982513427734 C 17.69901084899902 59.5715217590332 14.39027690887451 57.36931228637695 11.54888820648193 54.56436920166016 C 8.709743499755859 51.76162338256836 6.481266021728516 48.49923324584961 4.925354957580566 44.86782455444336 C 3.316010475158691 41.11166763305664 2.499999284744263 37.12052154541016 2.499999284744263 33.00525665283203 C 2.499999284744263 28.88998985290527 3.316010475158691 24.89885711669922 4.925354957580566 21.1427001953125 C 6.481266021728516 17.51128959655762 8.709743499755859 14.2489013671875 11.54888820648193 11.44615650177002 C 14.39027690887451 8.641201019287109 17.69901084899902 6.438990116119385 21.38318824768066 4.900690078735352 C 25.19833183288574 3.307712316513062 29.25277709960938 2.500001192092896 33.43391036987305 2.500001192092896 C 37.61504364013672 2.500001192092896 41.66948699951172 3.307712316513062 45.48464202880859 4.900690078735352 C 49.1688232421875 6.438990116119385 52.47755432128906 8.641201019287109 55.31893157958984 11.44615650177002 C 58.15807723999023 14.2489013671875 60.38655471801758 17.51128959655762 61.94246673583984 21.1427001953125 C 63.55181121826172 24.89885711669922 64.36782073974609 28.88998985290527 64.36782073974609 33.00525665283203 C 64.36782073974609 37.12052154541016 63.55181121826172 41.11166763305664 61.94246673583984 44.86782455444336 C 60.38655471801758 48.49923324584961 58.15807723999023 51.76162338256836 55.31893157958984 54.56436920166016 C 52.47755432128906 57.36931228637695 49.1688232421875 59.5715217590332 45.48464202880859 61.10982513427734 C 41.66949844360352 62.70280075073242 37.61504364013672 63.51051330566406 33.43391036987305 63.51051330566406 Z" stroke="none"/>
        <path d="M 33.43391036987305 5.000003814697266 C 29.585205078125 5.000003814697266 25.85483169555664 5.742763519287109 22.34644317626953 7.207668304443359 C 18.95937728881836 8.621910095214844 15.9174690246582 10.64653778076172 13.30521774291992 13.22529602050781 C 10.69742965698242 15.79964447021484 8.651191711425781 18.79469680786133 7.223323822021484 22.12728500366211 C 5.748031616210938 25.57052230834961 5.000003814697266 29.23040390014648 5.000003814697266 33.00525665283203 C 5.000003814697266 36.78010940551758 5.748031616210938 40.43998718261719 7.223323822021484 43.88324356079102 C 8.651191711425781 47.21581649780273 10.69742965698242 50.21088409423828 13.30521774291992 52.78522872924805 C 15.9174690246582 55.36399078369141 18.95937728881836 57.38860321044922 22.34644317626953 58.80284118652344 C 25.85483169555664 60.26774978637695 29.585205078125 61.0105094909668 33.43391036987305 61.0105094909668 C 37.28261566162109 61.0105094909668 41.01299285888672 60.26774978637695 44.52137756347656 58.80284118652344 C 47.90844345092773 57.38860321044922 50.95035171508789 55.36399078369141 53.56260299682617 52.78522872924805 C 56.17039108276367 50.21088409423828 58.21662902832031 47.21581649780273 59.64449691772461 43.88324356079102 C 61.11978912353516 40.43998718261719 61.86781692504883 36.78010940551758 61.86781692504883 33.00525665283203 C 61.86781692504883 29.23040390014648 61.11978912353516 25.57052230834961 59.64449691772461 22.12728500366211 C 58.21662902832031 18.79469680786133 56.17039108276367 15.79964447021484 53.56260299682617 13.22529602050781 C 50.95035171508789 10.64653778076172 47.90844345092773 8.621910095214844 44.52137756347656 7.207668304443359 C 41.01299285888672 5.742763519287109 37.28261566162109 5.000003814697266 33.43391036987305 5.000003814697266 M 33.43391036987305 0 C 51.89894866943359 0 66.86782073974609 14.77696228027344 66.86782073974609 33.00525665283203 C 66.86782073974609 51.23356246948242 51.89894866943359 66.01051330566406 33.43391036987305 66.01051330566406 C 14.9688720703125 66.01051330566406 0 51.23356246948242 0 33.00525665283203 C 0 14.77696228027344 14.9688720703125 0 33.43391036987305 0 Z" stroke="none" fill="#cb4242"/>
      </g>
    </g>
    <path id="Path_1198" data-name="Path 1198" d="M82.2,917h.057a.657.657,0,0,0,.184.067,3.372,3.372,0,0,1,2.284,1.148q4.321,4.345,8.659,8.673c.194.195.328.222.5,0a1.832,1.832,0,0,1,.18-.183q4.313-4.313,8.624-8.627a3.339,3.339,0,0,1,1.744-.968c.193-.038.387-.073.581-.109h.057a1.459,1.459,0,0,0,.269.075,3.15,3.15,0,0,1,2.789,2.408c.057.237.1.479.144.719v.057a.655.655,0,0,0-.068.184,3.382,3.382,0,0,1-1.148,2.285q-4.293,4.271-8.567,8.561c-.067.067-.16.124-.194.206a.4.4,0,0,0,0,.281c.033.081.126.139.194.206q4.343,4.343,8.687,8.684a3.387,3.387,0,0,1,.987,1.765c.038.193.073.387.109.581v.057a1.282,1.282,0,0,0-.073.241,3.134,3.134,0,0,1-2.494,2.834c-.21.049-.423.085-.634.127h-.057a.657.657,0,0,0-.184-.067,3.379,3.379,0,0,1-2.284-1.149q-4.241-4.263-8.5-8.506c-.471-.47-.341-.469-.812,0q-4.367,4.36-8.729,8.724a3.068,3.068,0,0,1-1.579.867c-.221.045-.442.088-.663.131H82.2a1.275,1.275,0,0,0-.24-.073,3.141,3.141,0,0,1-2.835-2.493c-.049-.21-.085-.423-.127-.635v-.114a.651.651,0,0,0,.07-.181,3.265,3.265,0,0,1,1.065-2.146q4.31-4.3,8.608-8.606c.442-.443.443-.328,0-.771q-4.321-4.326-8.648-8.647a3.4,3.4,0,0,1-.988-1.765c-.035-.174-.071-.348-.107-.521V920.2a1.482,1.482,0,0,0,.075-.269,3.153,3.153,0,0,1,2.408-2.789C81.721,917.087,81.962,917.047,82.2,917Z" transform="translate(11.123 -712.27)" fill="#cb4242"/>
  </g>
</svg>
