<svg xmlns="http://www.w3.org/2000/svg" width="34.764" height="22.157" viewBox="0 0 34.764 22.157">
  <g id="Group_1252" data-name="Group 1252" transform="translate(0)">
    <path id="Path_1162" data-name="Path 1162" d="M232.69,1203.074a1.511,1.511,0,0,1-1.654,1.1q-15.791-.018-31.582-.008c-.842,0-1.378-.359-1.507-1.068a1.646,1.646,0,0,1,.074-.793q1.632-4.762,3.292-9.513a1.377,1.377,0,0,1,1.509-1q6.741,0,13.482,0h11.342a1.448,1.448,0,0,1,1.684,1.188q1.608,4.609,3.214,9.218c.048.137.1.274.145.411Zm-9.965-4.936.154-.195a2,2,0,0,0,.311-2.193,1.974,1.974,0,0,0-1.874-1.232,1.954,1.954,0,0,0-1.887,1.149.413.413,0,0,1-.443.256q-3.617-.009-7.233,0a.454.454,0,0,1-.49-.292,2.083,2.083,0,0,0-3.927,1.04,2.228,2.228,0,0,0,.629,1.445.3.3,0,0,1-.02.051c-.055.072-.111.143-.166.215a2,2,0,0,0-.251,2.171,2.079,2.079,0,0,0,3.749.045.382.382,0,0,1,.409-.248q3.668.011,7.335,0a.386.386,0,0,1,.406.257,2.078,2.078,0,0,0,3.486.372A2.115,2.115,0,0,0,222.725,1198.139Z" transform="translate(-197.926 -1182.013)" fill="#c3c3c3"/>
    <path id="Path_1163" data-name="Path 1163" d="M312.017,994.747a6.036,6.036,0,0,1,2.853-3.5,6.132,6.132,0,0,1,4.455-.6c.1-.243.188-.472.288-.7a6.113,6.113,0,0,1,11.274.287.549.549,0,0,0,.224.3,3.011,3.011,0,0,1,2.116,1.894c1.687.167,2.73.969,2.977,2.312Z" transform="translate(-306.592 -986.344)" fill="#c3c3c3"/>
  </g>
</svg>
