<svg xmlns="http://www.w3.org/2000/svg" width="26.996" height="27" viewBox="0 0 26.996 27">
  <path id="Path_1285" data-name="Path 1285" d="M802.753,396.214A13.5,13.5,0,1,1,816.241,382.7,13.511,13.511,0,0,1,802.753,396.214Zm3.845-20.738c0,.673.009,1.315-.005,1.957a.547.547,0,0,0,.218.476,6.106,6.106,0,0,1,2.205,4.344,6.251,6.251,0,0,1-6.956,6.688,6.28,6.28,0,0,1-3.617-10.813,1.234,1.234,0,0,0,.453-1.058c-.037-.524-.009-1.053-.009-1.6a8.237,8.237,0,1,0,7.711.005Zm-2.907-2.1H801.8v6.188h1.889Z" transform="translate(-789.245 -369.214)" fill="#5ccbc2"/>
</svg>
