<svg xmlns="http://www.w3.org/2000/svg" width="23.422" height="20.914" viewBox="0 0 23.422 20.914">
  <g id="Group_1351" data-name="Group 1351" transform="translate(497.995 -268.497)">
    <path id="Path_1297" data-name="Path 1297" d="M-474.583,276.862h-.3c-1.28,0-2.561,0-3.841,0a4.182,4.182,0,0,0-4.211,4.293,4.185,4.185,0,0,0,4.069,4.066c1.324.017,2.648,0,3.971,0h.3c.008.079.019.145.019.212,0,.619.005,1.237,0,1.855a2.086,2.086,0,0,1-2.126,2.115c-2.125.005-4.25,0-6.376,0H-494.5a3.35,3.35,0,0,1-3.495-3.5V272a3.351,3.351,0,0,1,3.5-3.5h15.234a1.261,1.261,0,0,1,1.341,1.261A1.259,1.259,0,0,1-479.1,271c-.1.006-.209,0-.313,0h-15.05a1.957,1.957,0,0,0-.339.013.843.843,0,0,0-.685.888.847.847,0,0,0,.79.769c.1.006.191,0,.287,0q8.82,0,17.637,0a2.079,2.079,0,0,1,2.18,1.947C-474.557,275.358-474.583,276.09-474.583,276.862Z" fill="#00cfc2"/>
    <path id="Path_1298" data-name="Path 1298" d="M-469.327,281.377v6.366a1.311,1.311,0,0,1-.19.028c-1.456,0-2.913.012-4.368,0a2.838,2.838,0,0,1-2.611-2.417,3.384,3.384,0,0,1,1.294-3.567,2.5,2.5,0,0,1,1.207-.413c1.521-.049,3.044-.022,4.567-.022A.468.468,0,0,1-469.327,281.377Z" transform="translate(-5.261 -3.701)" fill="#00cfc2"/>
  </g>
</svg>
