<svg id="pawprint" xmlns="http://www.w3.org/2000/svg" width="24.624" height="21.281" viewBox="0 0 24.624 21.281">
  <path id="Path_1137" data-name="Path 1137" d="M77.826,184.71a6,6,0,0,0-10.1,0l-2.67,4.165a3.8,3.8,0,0,0,4.722,5.522l.05-.022a7.46,7.46,0,0,1,5.941.022,3.774,3.774,0,0,0,1.523.322,3.823,3.823,0,0,0,.85-.1,3.8,3.8,0,0,0,2.35-5.748Zm0,0" transform="translate(-61.359 -173.439)" fill="#5ccbc2"/>
  <path id="Path_1138" data-name="Path 1138" d="M4.419,105.645a2.911,2.911,0,0,0,1.7-1.8,3.76,3.76,0,0,0-.066-2.593,3.763,3.763,0,0,0-1.69-1.968,2.911,2.911,0,0,0-2.468-.2,3.333,3.333,0,0,0-1.632,4.4,3.516,3.516,0,0,0,3.162,2.351A2.756,2.756,0,0,0,4.419,105.645Zm0,0" transform="translate(0 -94.217)" fill="#5ccbc2"/>
  <path id="Path_1139" data-name="Path 1139" d="M128.031,8.243a3.9,3.9,0,0,0,3.617-4.121,3.648,3.648,0,1,0-7.234,0A3.9,3.9,0,0,0,128.031,8.243Zm0,0" transform="translate(-118.43)" fill="#5ccbc2"/>
  <path id="Path_1140" data-name="Path 1140" d="M286.373,47.571h0a2.948,2.948,0,0,0,.931.15,3.749,3.749,0,0,0,3.413-2.686,4.041,4.041,0,0,0-.058-2.788,3.057,3.057,0,0,0-4.533-1.507,4.042,4.042,0,0,0-1.715,2.2A3.575,3.575,0,0,0,286.373,47.571Zm0,0" transform="translate(-270.526 -38.316)" fill="#5ccbc2"/>
  <path id="Path_1141" data-name="Path 1141" d="M382.08,171.6h0a3.544,3.544,0,0,0-4.184,5.653,2.827,2.827,0,0,0,1.7.548,3.657,3.657,0,0,0,2.888-1.53A3.334,3.334,0,0,0,382.08,171.6Zm0,0" transform="translate(-358.616 -162.961)" fill="#5ccbc2"/>
</svg>
