<svg xmlns="http://www.w3.org/2000/svg" width="21.066" height="25.286" viewBox="0 0 21.066 25.286">
  <g id="Group_1352" data-name="Group 1352" transform="translate(404.488 -207.895)">
    <path id="Path_1299" data-name="Path 1299" d="M-393.7,207.9c.056.029.111.059.169.085a.971.971,0,0,1,.629.892c.011.317.009.635,0,.952,0,.135.038.192.185.217a7.207,7.207,0,0,1,5.988,5.6,8.368,8.368,0,0,1,.144,1.536c.03,1.07-.022,2.145.048,3.213a6.431,6.431,0,0,0,2.34,4.57,1.921,1.921,0,0,1,.768,1.284,1.8,1.8,0,0,1-1.794,1.972c-.065,0-.132,0-.2,0q-8.529,0-17.059,0a1.95,1.95,0,0,1-1.623-.7,1.735,1.735,0,0,1,.312-2.473,7.03,7.03,0,0,0,1.685-2.063,6.716,6.716,0,0,0,.785-3.209c0-.976-.011-1.953.008-2.929a7.181,7.181,0,0,1,6.083-6.8c.194-.031.247-.1.235-.273-.014-.19.013-.382-.006-.571a1.146,1.146,0,0,1,.806-1.31Z" fill="#00d4c2"/>
    <path id="Path_1300" data-name="Path 1300" d="M-387.551,233.969a4.591,4.591,0,0,1-4.48,3.707,4.608,4.608,0,0,1-4.575-3.707Z" transform="translate(-1.874 -4.495)" fill="#00d4c2"/>
  </g>
</svg>
