<svg xmlns="http://www.w3.org/2000/svg" width="20.796" height="20.8" viewBox="0 0 20.796 20.8">
  <path id="Path_1284" data-name="Path 1284" d="M767.459,356.484h-2.681a.8.8,0,0,1-.523-.638c-.157-.671-.331-1.338-.491-2.009a.3.3,0,0,0-.213-.234c-.31-.116-.617-.239-.917-.378a.292.292,0,0,0-.314.022c-.594.363-1.193.72-1.79,1.078a.657.657,0,0,1-.974-.116l-1.508-1.508a.663.663,0,0,1-.126-.989c.361-.6.722-1.207,1.088-1.808a.263.263,0,0,0,.016-.277q-.207-.462-.384-.937a.3.3,0,0,0-.237-.211c-.689-.169-1.376-.347-2.063-.522a.65.65,0,0,1-.58-.75q0-1.087,0-2.173a.645.645,0,0,1,.57-.738c.694-.177,1.388-.355,2.083-.526a.284.284,0,0,0,.223-.2c.119-.316.245-.63.384-.937a.278.278,0,0,0-.017-.3c-.37-.606-.734-1.216-1.1-1.826a.644.644,0,0,1,.119-.94q.767-.769,1.536-1.537a.651.651,0,0,1,.958-.114c.6.361,1.207.722,1.808,1.088a.277.277,0,0,0,.3.02c.307-.14.62-.267.937-.384a.3.3,0,0,0,.2-.242q.253-1.076.517-2.149a.648.648,0,0,1,.721-.568q1.117,0,2.234,0a.648.648,0,0,1,.721.569c.174.709.349,1.418.512,2.129a.334.334,0,0,0,.247.274c.293.1.579.225.861.355a.324.324,0,0,0,.351-.015c.592-.366,1.192-.721,1.79-1.078a.651.651,0,0,1,.958.115l1.522,1.522a.658.658,0,0,1,.123.973c-.361.6-.722,1.207-1.088,1.808a.277.277,0,0,0-.016.3c.137.3.264.607.377.918a.308.308,0,0,0,.251.221c.7.165,1.39.347,2.088.507a.778.778,0,0,1,.625.506v2.681a.777.777,0,0,1-.625.505c-.7.16-1.4.343-2.107.511a.281.281,0,0,0-.225.2c-.118.316-.245.629-.383.937a.278.278,0,0,0,.014.3c.37.606.733,1.215,1.1,1.825a.644.644,0,0,1-.114.941q-.76.762-1.521,1.522a.663.663,0,0,1-.988.126c-.6-.361-1.206-.722-1.807-1.087a.262.262,0,0,0-.277-.017q-.462.207-.936.385a.3.3,0,0,0-.211.236c-.16.67-.334,1.337-.491,2.008A.8.8,0,0,1,767.459,356.484Zm-1.332-7.313a3.046,3.046,0,1,0-3.054-3.043A3.053,3.053,0,0,0,766.127,349.171Z" transform="translate(-755.762 -335.684)" fill="#5ccbc2"/>
</svg>
