<svg xmlns="http://www.w3.org/2000/svg" width="23.105" height="27.734" viewBox="0 0 23.105 27.734">
  <g id="Group_1352" data-name="Group 1352" transform="translate(404.488 -207.895)">
    <path id="Path_1299" data-name="Path 1299" d="M-392.66,207.9c.061.033.122.067.185.1a1.1,1.1,0,0,1,.69,1.014c.012.36.01.722,0,1.083,0,.154.042.218.2.247a8.031,8.031,0,0,1,6.568,6.374,9.855,9.855,0,0,1,.158,1.747c.033,1.217-.024,2.439.052,3.653a7.405,7.405,0,0,0,2.567,5.2,2.2,2.2,0,0,1,.842,1.46,2.015,2.015,0,0,1-1.968,2.242c-.072,0-.144,0-.216,0q-9.355,0-18.711,0a2.105,2.105,0,0,1-1.78-.8,2.021,2.021,0,0,1,.342-2.812,7.942,7.942,0,0,0,1.848-2.346,7.864,7.864,0,0,0,.861-3.65c0-1.11-.012-2.221.008-3.33a8.068,8.068,0,0,1,6.672-7.732c.213-.035.271-.113.258-.31-.015-.216.014-.435-.007-.649a1.307,1.307,0,0,1,.884-1.49Z" transform="translate(0)" fill="#9b9b9b"/>
    <path id="Path_1300" data-name="Path 1300" d="M-388.173,233.969a4.276,4.276,0,0,1-4.172,3.452,4.291,4.291,0,0,1-4.26-3.452Z" transform="translate(-0.542 -1.792)" fill="#9b9b9b"/>
  </g>
</svg>
