<svg xmlns="http://www.w3.org/2000/svg" width="24.17" height="24.174" viewBox="0 0 24.17 24.174">
  <g id="Group_1325" data-name="Group 1325" transform="translate(-779.999 -359.947)">
    <path id="Path_1277" data-name="Path 1277" d="M790.106,442.417c1.19-3.565,3.888-5.312,7.6-5.573v-4.792h-4.814v2.4h-1.618v-2.4h-4.827v2.4H784.83v-2.4H780v.3q0,7.83,0,15.66a3.222,3.222,0,0,0,3.373,3.368h9.465C790.041,448.947,788.925,445.956,790.106,442.417Z" transform="translate(0 -67.264)" fill="#5ccbc2"/>
    <path id="Path_1278" data-name="Path 1278" d="M947.952,431.951l0,0v-.007h-.007v.007h.007Z" transform="translate(-156.673 -67.167)" fill="#5ccbc2"/>
    <path id="Path_1279" data-name="Path 1279" d="M971.955,431.955v-.007h-.007s0,0,0,.007Z" transform="translate(-179.062 -67.167)" fill="#5ccbc2"/>
    <path id="Path_1280" data-name="Path 1280" d="M954.467,528a6.445,6.445,0,1,0,6.426,6.47A6.448,6.448,0,0,0,954.467,528Zm-.833,9.137-2.664-2.665,1.086-1.085,1.531,1.537,3.212-3.213,1.132,1.131Z" transform="translate(-156.724 -156.772)" fill="#5ccbc2"/>
    <path id="Path_1281" data-name="Path 1281" d="M875.955,431.948h-.007s0,0,0,.007h.007v-.007Z" transform="translate(-89.507 -67.167)" fill="#5ccbc2"/>
    <path id="Path_1282" data-name="Path 1282" d="M853.641,363.56a2.4,2.4,0,0,1,2.543-1.992,2.43,2.43,0,0,1,2.237,2.315c.01.3.006.6.008.9h1.6a13.109,13.109,0,0,0-.042-1.322,4.022,4.022,0,0,0-7.836-.664,6.29,6.29,0,0,0-.173,1.986h1.6A10.443,10.443,0,0,1,853.641,363.56Z" transform="translate(-67.147)" fill="#5ccbc2"/>
    <path id="Path_1283" data-name="Path 1283" d="M851.955,431.948h-.007v.007h.007Z" transform="translate(-67.118 -67.167)" fill="#5ccbc2"/>
  </g>
</svg>
