<svg xmlns="http://www.w3.org/2000/svg" width="283.585" height="223.797" viewBox="0 0 283.585 223.797">
  <g id="Group_1351" data-name="Group 1351" transform="translate(-45.708 -355.031)">
    <path id="Path_1199" data-name="Path 1199" d="M10.36,122.3a33.724,33.724,0,0,1-4.51-1.966A11.406,11.406,0,0,1,.095,110.247C.036,85.327-.107,60.4.139,35.486.31,18.054,14.38,2.673,31.617.361c20.675-2.773,38.852,10.7,42.073,31.315a66.185,66.185,0,0,1,.432,9.3c.065,4.828.023,9.657.015,14.486C74.128,62.317,70.179,67.426,64,68.591c-6.076,1.144-11.538-2.178-14.042-8.536-.053-.136-.135-.259-.521-.381v1.691c0,8.826.032,17.65-.011,26.475C49.391,94.807,45.2,99.8,38.707,100.754A12.3,12.3,0,0,1,25.467,92.69a6.687,6.687,0,0,0-.753-1.638q0,8.8,0,17.6c0,7.363-3.066,11.435-10.105,13.451-.1.027-.173.129-.259.2Z" transform="translate(188.702 433.083) rotate(120)" fill="#d3dfe5"/>
    <path id="Path_1200" data-name="Path 1200" d="M59.844,122.317c-.828-.279-1.669-.529-2.485-.844a12.068,12.068,0,0,1-7.845-11.129c-.08-6.426-.02-12.856-.209-19.327-.154.451-.31.9-.464,1.352a12.361,12.361,0,0,1-12.834,8.491c-6.256-.744-10.942-5.264-11.119-11.47-.266-9.313-.111-18.64-.135-27.96a4.132,4.132,0,0,0-.318-1.915c-.229.6-.437,1.206-.69,1.794a12.34,12.34,0,0,1-13.551,7.3A12.134,12.134,0,0,1,.127,56.982C0,49.056-.162,41.1.382,33.2,1.5,16.946,15,2.815,31.12.435,50.994-2.5,68.853,9.676,73.279,29.19c.34,1.5.574,3.022.858,4.535v78.268c-.951,3.215-2.324,6.207-5.282,8.034a42,42,0,0,1-5.023,2.291Z" transform="translate(223.363 497.296) rotate(-120)" fill="#d0dfe6"/>
    <path id="Path_1201" data-name="Path 1201" d="M484.469,1026c2.316.227,4.637.413,6.948.687,5.584.664,11.108,1.679,16.22,4.112a22.792,22.792,0,0,1,5.787,3.836c3.559,3.346,3.458,7.952.011,11.412-2.91,2.921-6.615,4.4-10.459,5.547-9.612,2.867-19.466,3.375-29.4,2.8a66.6,66.6,0,0,1-18.9-3.55,21.33,21.33,0,0,1-8.137-4.717c-3.543-3.542-3.57-8.075-.026-11.617,2.744-2.744,6.235-4.169,9.837-5.313a71.944,71.944,0,0,1,17.3-2.992c.595-.039,1.186-.137,1.779-.208Zm-4.541,6.774c-7.317.1-14.595.628-21.588,2.976a32.835,32.835,0,0,0-6.454,3.119c-1.646,1-1.616,1.833-.03,2.884a25.408,25.408,0,0,0,4.86,2.566,56.32,56.32,0,0,0,16.65,3.256,82.08,82.08,0,0,0,25.774-1.946,23.576,23.576,0,0,0,8.945-3.865c1.469-1.14,1.559-1.891-.009-2.845a32.783,32.783,0,0,0-6.44-3.149C494.61,1033.394,487.293,1032.88,479.929,1032.774Z" transform="translate(-292.463 -670.969)" fill="#f0c97b"/>
    <path id="Path_1297" data-name="Path 1297" d="M79.161,412.016c3.028-8.894,15.329-14.749,27.213-9.578,6.654-11.223,21.572-13.65,31.653-10.006,8.735,3.158,18.158,12.75,13.708,25.859.6.111,1.187.216,1.776.331,9.91,1.925,16.578,9.433,16.094,18.116-.468,8.39-8.223,15.424-18.145,16.442a25.565,25.565,0,0,1-2.589.1q-37.975.007-75.95,0c-12.341-.012-22.2-7.046-24.478-17.376-2.454-11.106,6.887-22.427,19.979-24.148a34.878,34.878,0,0,1,5.405-.266C75.578,411.525,77.322,411.821,79.161,412.016Z" transform="translate(39.74 112.119)" fill="#fff" stroke="#cce0e7" stroke-width="5"/>
    <path id="Path_1298" data-name="Path 1298" d="M149.233,415.723c-3.387-10.452-17.145-17.333-30.436-11.256-7.442-13.189-24.127-16.042-35.4-11.759-9.77,3.711-20.308,14.983-15.331,30.389-.666.13-1.328.254-1.987.389-11.083,2.263-18.542,11.086-18,21.29.524,9.859,9.2,18.127,20.294,19.323a27.222,27.222,0,0,0,2.9.112q42.473.008,84.946,0c13.8-.014,24.824-8.28,27.377-20.42,2.744-13.051-7.7-26.356-22.345-28.379a37.143,37.143,0,0,0-6.045-.313C153.24,415.145,151.291,415.493,149.233,415.723Z" transform="translate(100.53 112.119)" fill="#fff" stroke="#cce0e7" stroke-width="5"/>
  </g>
</svg>
