<svg xmlns="http://www.w3.org/2000/svg" width="20.794" height="20.514" viewBox="0 0 20.794 20.514">
  <path id="Path_1211" data-name="Path 1211" d="M932.99,511.863a1.812,1.812,0,0,1-.546,1.035,1.678,1.678,0,0,1-2.4-.122q-2.236-2.229-4.465-4.466a1,1,0,0,1-.118-.167c-.557.291-1.042.592-1.563.808a8.4,8.4,0,1,1,.66-15.124,8.332,8.332,0,0,1,3.12,2.893,8.358,8.358,0,0,1,.159,8.761.261.261,0,0,0,.047.39c1.447,1.434,2.881,2.881,4.328,4.315a2.4,2.4,0,0,1,.78,1.271Zm-18.074-10.626a5.679,5.679,0,1,0,5.683-5.679A5.688,5.688,0,0,0,914.917,501.238Z" transform="translate(-912.196 -492.834)" fill="#fff"/>
</svg>
