<svg xmlns="http://www.w3.org/2000/svg" width="76" height="76" viewBox="0 0 76 76">
  <g id="Group_1352" data-name="Group 1352" transform="translate(-149 -4)">
    <circle id="Ellipse_19" data-name="Ellipse 19" cx="38" cy="38" r="38" transform="translate(149 4)" fill="#5ccbc2"/>
    <g id="Group_1355" data-name="Group 1355" transform="translate(164.952 22.881)">
      <path id="Path_1156" data-name="Path 1156" d="M402.857,1050.6v1.119c-.146.565-.253,1.143-.446,1.692a6.384,6.384,0,0,1-10.687,2.433c-.2-.2-.377-.418-.586-.651a6.379,6.379,0,0,1-10.328-.009,6.385,6.385,0,0,1-10.34,0c-.151.179-.258.312-.372.44a6.2,6.2,0,0,1-3.411,2.038,6.389,6.389,0,0,1-7.137-3.469,5.6,5.6,0,0,1-.671-3.862c.769-3.189,1.583-6.367,2.383-9.549a2.767,2.767,0,0,1,2.865-2.239q16.682,0,33.364,0a2.763,2.763,0,0,1,2.866,2.237c.549,2.181,1.088,4.365,1.639,6.545C402.275,1048.423,402.57,1049.512,402.857,1050.6Z" transform="translate(-358.761 -1038.546)" fill="#fff"/>
      <path id="Path_1157" data-name="Path 1157" d="M409.161,1235.808H398.133v11h-.484q-5.145,0-10.29,0a2.785,2.785,0,0,1-3.015-3q0-6.975,0-13.949v-.358c.783.212,1.53.467,2.3.613a8.541,8.541,0,0,0,6.262-1.221.661.661,0,0,1,.8,0,9.112,9.112,0,0,0,9.527,0,.681.681,0,0,1,.8-.009,9.128,9.128,0,0,0,9.565,0c.237-.134.4-.223.687-.046a8.782,8.782,0,0,0,8.231.746c.118-.046.239-.085.413-.147v.494q0,6.888,0,13.777a2.805,2.805,0,0,1-3.087,3.1H409.161Z" transform="translate(-381.584 -1208.573)" fill="#fff"/>
    </g>
  </g>
</svg>
