<svg xmlns="http://www.w3.org/2000/svg" width="20.428" height="27.491" viewBox="0 0 20.428 27.491">
  <g id="Group_1251" data-name="Group 1251" transform="translate(0)">
    <path id="Path_1158" data-name="Path 1158" d="M421.233,1263.27a.964.964,0,0,1-.628-1.033c.015-1.727.006-3.453.006-5.18a3.733,3.733,0,0,1,2.578-3.794.309.309,0,0,0,.154-.226c.017-.355.007-.711.007-1.081h5.9c0,.347.009.693,0,1.039a.29.29,0,0,0,.221.333,3.652,3.652,0,0,1,2.463,3.541c.017,1.834,0,3.668.006,5.5a.9.9,0,0,1-.624.9Z" transform="translate(-420.605 -1235.78)" fill="#c3c3c3"/>
    <path id="Path_1159" data-name="Path 1159" d="M595.065,1158.6c-.176-.154-.411-.275-.518-.468a.784.784,0,0,1,.705-1.141c.268-.01.536,0,.8,0h.789v-1.665c-.8,0-1.585,0-2.37,0a.773.773,0,0,1-.737-.447.71.71,0,0,1,.079-.83,3.024,3.024,0,0,1,.574-.4l.058.046v-.342q0-6.563,0-13.126a.844.844,0,0,1,.227-.74,1.149,1.149,0,0,1,.617-.255c1.581-.021,3.161-.013,4.742-.01a.747.747,0,0,1,.816.657c.032.846.01,1.695.01,2.563-.8,0-1.6,0-2.392,0a.783.783,0,0,0-.726.421.747.747,0,0,0,.028.813.805.805,0,0,0,.726.376c.688,0,1.375,0,2.063,0h.3v1.611c-.811,0-1.6,0-2.4,0a.792.792,0,0,0-.793.6.753.753,0,0,0,.327.862,1.159,1.159,0,0,0,.529.143c.687.016,1.375.007,2.063.007h.275v1.611h-.289c-.688,0-1.375,0-2.063,0a.807.807,0,1,0-.009,1.609c.776,0,1.553,0,2.364,0v3.19c.1.029.165.047.231.068a.8.8,0,0,1-.225,1.572c-.741.008-1.482,0-2.224,0-.052,0-.1.01-.168.016v1.648c.528,0,1.053,0,1.577,0a.772.772,0,0,1,.733.452.72.72,0,0,1-.07.81,2.369,2.369,0,0,1-.459.347Z" transform="translate(-581.254 -1131.109)" fill="#c3c3c3"/>
    <path id="Path_1160" data-name="Path 1160" d="M618.881,1026a.962.962,0,0,1,.623,1.035c-.019,1.162-.006,2.325-.006,3.488v.363c.252,0,.488,0,.725,0a.814.814,0,0,1,.886.857c.007.24,0,.48,0,.737H616.3c0-.316-.023-.62.006-.919a.77.77,0,0,1,.779-.673c.257-.007.515,0,.8,0v-.336c0-1.172.013-2.343-.006-3.514a.962.962,0,0,1,.622-1.036Z" transform="translate(-602.284 -1026)" fill="#c3c3c3"/>
    <path id="Path_1161" data-name="Path 1161" d="M441.082,1173.567h-3.616a.82.82,0,0,1-.926-.922q0-1.234,0-2.469a.815.815,0,0,1,.918-.9h7.26a.827.827,0,0,1,.93.922q.006,1.221,0,2.442a.827.827,0,0,1-.923.929Q442.9,1173.568,441.082,1173.567Z" transform="translate(-435.397 -1159.016)" fill="#c3c3c3"/>
  </g>
</svg>
