<svg xmlns="http://www.w3.org/2000/svg" width="12.337" height="21.006" viewBox="0 0 12.337 21.006">
  <path id="Path_1170" data-name="Path 1170" d="M748.368,962.641a2.308,2.308,0,0,1-.916-.659q-4.457-4.462-8.921-8.917a1.177,1.177,0,0,1-.369-1.278,1.373,1.373,0,0,1,.326-.509q4.619-4.633,9.251-9.254a1.146,1.146,0,0,1,1.713-.01c.245.238.493.475.715.734a1.122,1.122,0,0,1-.009,1.466c-.062.073-.129.141-.2.209q-3.763,3.763-7.528,7.526a1.671,1.671,0,0,0-.234.248.919.919,0,0,1,.214.121q3.8,3.8,7.6,7.6a1.13,1.13,0,0,1,.178,1.567,3.471,3.471,0,0,1-1.372,1.159Z" transform="translate(750.435 962.641) rotate(180)" fill="#fcaf3d"/>
</svg>
