<svg xmlns="http://www.w3.org/2000/svg" width="18.371" height="26.467" viewBox="0 0 18.371 26.467">
  <defs>
    <style>
      .cls-1 {
        fill: #9b9b9b;
      }
    </style>
  </defs>
  <g id="Grupo_1248" data-name="Grupo 1248" transform="translate(0)">
    <path id="Trazado_1151" data-name="Trazado 1151" class="cls-1" d="M472.236,1034.767a1.119,1.119,0,0,0-1.279-1.267H455.073a1.1,1.1,0,0,0-1.206,1.2q0,12.03,0,24.061c0,.063,0,.126,0,.188a1.061,1.061,0,0,0,.965,1c.389.019.779.017,1.173.012h14.949a1.119,1.119,0,0,0,1.278-1.268Q472.237,1046.731,472.236,1034.767Zm-8.77,3.545a5.377,5.377,0,1,1-5.414,5.367A5.4,5.4,0,0,1,463.467,1038.311Zm5.468,17.183a2.433,2.433,0,0,1-.27,0H458.273a2.464,2.464,0,0,1-.27,0,.535.535,0,0,1,0-1.066,2.244,2.244,0,0,1,.243,0H468.69a2.244,2.244,0,0,1,.243,0,.535.535,0,0,1,0,1.066Zm-.057-3.11c-.947.008-1.894,0-2.841,0h-7.766a2.46,2.46,0,0,1-.3-.009.528.528,0,0,1-.459-.46.517.517,0,0,1,.36-.563,1.322,1.322,0,0,1,.373-.041q5.222,0,10.444,0a2,2,0,0,1,.216,0,.547.547,0,0,1,.517.552A.524.524,0,0,1,468.878,1052.385Z" transform="translate(-453.866 -1033.5)"/>
    <path id="Trazado_1155" data-name="Trazado 1155" class="cls-1" d="M547.174,1136.1c0-.488,0-.938,0-1.388,0-.323.075-.4.4-.4q.8,0,1.6,0c.3,0,.385.084.386.388,0,.458,0,.917,0,1.4.47,0,.91,0,1.35,0,.374,0,.438.069.439.446q0,.759,0,1.518c0,.35-.064.416-.406.417-.449,0-.9,0-1.382,0,0,.474,0,.922,0,1.37,0,.359-.066.424-.429.426-.523,0-1.046,0-1.57,0-.31,0-.381-.077-.382-.388,0-.459,0-.917,0-1.407-.466,0-.905,0-1.345,0-.392,0-.443-.05-.443-.433,0-.524,0-1.049,0-1.573,0-.288.08-.371.37-.375C546.216,1136.094,546.675,1136.1,547.174,1136.1Z" transform="translate(-538.761 -1127.094)"/>
  </g>
</svg>
