<svg xmlns="http://www.w3.org/2000/svg" width="30.899" height="26.794" viewBox="0 0 30.899 26.794">
  <defs>
    <style>
      .cls-1 {
        fill: #9b9b9b;
      }
    </style>
  </defs>
  <g id="Grupo_1249" data-name="Grupo 1249" transform="translate(0 0)">
    <path id="Trazado_1156" data-name="Trazado 1156" class="cls-1" d="M389.66,1046.994v.784c-.1.4-.177.8-.312,1.185a4.473,4.473,0,0,1-7.488,1.705c-.139-.14-.264-.293-.411-.457a4.47,4.47,0,0,1-7.237-.006,4.474,4.474,0,0,1-7.245,0c-.106.125-.181.219-.261.308a4.341,4.341,0,0,1-2.39,1.428,4.477,4.477,0,0,1-5-2.431,3.925,3.925,0,0,1-.47-2.706c.539-2.235,1.109-4.462,1.67-6.691a1.939,1.939,0,0,1,2.008-1.569q11.69,0,23.379,0a1.936,1.936,0,0,1,2.009,1.567c.385,1.528.762,3.059,1.148,4.586C389.252,1045.467,389.459,1046.23,389.66,1046.994Z" transform="translate(-358.761 -1038.546)"/>
    <path id="Trazado_1157" data-name="Trazado 1157" class="cls-1" d="M401.734,1233.694h-7.727v7.709h-.339q-3.6,0-7.21,0a1.951,1.951,0,0,1-2.112-2.1q0-4.887,0-9.774v-.251c.549.149,1.072.327,1.61.429a5.985,5.985,0,0,0,4.388-.855.463.463,0,0,1,.56,0,6.385,6.385,0,0,0,6.676,0,.477.477,0,0,1,.56-.006,6.4,6.4,0,0,0,6.7,0c.166-.094.282-.156.481-.032a6.153,6.153,0,0,0,5.767.523c.083-.032.167-.06.29-.1v.346q0,4.827,0,9.654a1.966,1.966,0,0,1-2.163,2.172h-7.481Z" transform="translate(-382.41 -1214.61)"/>
  </g>
</svg>
