<svg id="Grupo_1253" data-name="Grupo 1253" xmlns="http://www.w3.org/2000/svg" width="20.193" height="29.093" viewBox="0 0 20.193 29.093">
  <defs>
    <style>
      .cls-1 {
        fill: #5ccbc2;
      }
    </style>
  </defs>
  <path id="Trazado_1151" data-name="Trazado 1151" class="cls-1" d="M474.059,1034.892a1.23,1.23,0,0,0-1.406-1.393h-17.46a1.207,1.207,0,0,0-1.326,1.324q0,13.224,0,26.448c0,.069,0,.138.005.207a1.166,1.166,0,0,0,1.061,1.1c.428.021.856.018,1.29.014h16.432a1.231,1.231,0,0,0,1.405-1.394Q474.059,1048.044,474.059,1034.892Zm-9.64,3.9a5.911,5.911,0,1,1-5.951,5.9A5.938,5.938,0,0,1,464.419,1038.789Zm6.01,18.888a2.678,2.678,0,0,1-.3.005H458.711a2.68,2.68,0,0,1-.3-.005.588.588,0,0,1,0-1.172,2.441,2.441,0,0,1,.268-.005h11.481a2.5,2.5,0,0,1,.267,0,.588.588,0,0,1,0,1.172Zm-.062-3.418c-1.041.009-2.082,0-3.123,0h-8.536a2.722,2.722,0,0,1-.327-.01.58.58,0,0,1-.5-.506.568.568,0,0,1,.4-.619,1.451,1.451,0,0,1,.41-.045q5.74,0,11.48,0a2.173,2.173,0,0,1,.238,0,.6.6,0,0,1,.568.607A.576.576,0,0,1,470.367,1054.258Z" transform="translate(-453.866 -1033.5)"/>
  <path id="Trazado_1155" data-name="Trazado 1155" class="cls-1" d="M547.351,1136.276c0-.536,0-1.031,0-1.526,0-.355.083-.44.437-.442q.877-.005,1.755,0c.335,0,.423.093.425.426,0,.5,0,1.008,0,1.541.517,0,1,0,1.484,0,.411,0,.482.076.482.49q0,.834,0,1.669c0,.385-.07.457-.446.459-.494,0-.988,0-1.519,0,0,.521,0,1.013,0,1.506,0,.394-.073.466-.471.468-.575,0-1.15,0-1.725,0-.34,0-.418-.085-.42-.427,0-.5,0-1.008,0-1.547-.512,0-1,0-1.479,0-.431,0-.487-.056-.487-.476,0-.576,0-1.153,0-1.729,0-.316.088-.408.407-.412C546.3,1136.271,546.8,1136.276,547.351,1136.276Z" transform="translate(-538.104 -1126.379)"/>
</svg>
