<svg xmlns="http://www.w3.org/2000/svg" width="218.838" height="106.41" viewBox="0 0 218.838 106.41">
  <g id="Group_3" data-name="Group 3" transform="translate(139.939 -110.015)">
    <path id="Path_3" data-name="Path 3" d="M-116.632,110.731c24.4-5.2,49.883,18.771,38.132,44.29-3.994,8.61-17.024,20.952-24.626,25.618-1.616.91-2.05,2.108-1.788,3.994.426,4.617,3.526,16.573,1.689,22.928a9.548,9.548,0,0,1-7.1,6.363,7.25,7.25,0,0,1-7.8-2.772c-2.706-3.584-16.294-46.586-19.8-60.4-3.387-13.973-3.8-25.667,9.119-34.663A32.5,32.5,0,0,1-116.632,110.731Zm7.676,41.9c4.51-2.9,9.127-8.6,7.413-13.367-1.87-4.871-7.872-6.363-10.866-5.453-3.657,1.058-2.8,3.789,1.394,18.287C-110.728,153.422-109.8,153.225-108.957,152.635Z" transform="translate(0 0)" fill="#fcaf3d"/>
    <path id="Path_4" data-name="Path 4" d="M-93.549,174.865a36.979,36.979,0,0,1-15.327,5.962c-13.826,1.9-26.987-8.537-22.781-21.961,3.395-11.12,12.342-16.548,24-16.278a1.288,1.288,0,0,0,1.5-1.222,40.243,40.243,0,0,0-.82-9.078c-.131-.82-.541-1.222-1.222-1.222-1.632,0-4.338,2.436-5.691,4.338-3.395,4.609-4.207,8.135-8.676,7.733-3.805-.271-5.7-4.207-5.289-8,1.484-12.21,11.661-21.428,21.559-21.428,17.081,0,20.206,20.747,20.206,29.964S-86.087,169.174-93.549,174.865Zm-13.285-17.081c0-.951-.41-1.5-1.492-1.361-3.116.812-6.782,2.034-6.782,4.338,0,1.9,3.8,4.067,5.962,2.854C-107.244,162.663-106.973,159-106.834,157.784Z" transform="translate(53.902 26.586)" fill="#fcaf3d"/>
    <path id="Path_5" data-name="Path 5" d="M-99.326,140.1c2.575-3.666,5.83-5.289,8.807-5.289,3.665,0,6.921,2.3,8.955,6.372,1.492,3.256,3.116,9.9,4.338,12.2,4.067-.672,1.632-25.085,1.361-28.882-.41-6.511,4.338-10.71,9.217-10.71,3.526,0,6.913,2.165,8.545,7.052,1.082,3.247,3.657,23.182-.549,37.427C-62.31,170.742-69.9,176.3-77.087,176.3c-5.289,0-10.439-2.846-13.834-8.135-1.222-1.9-1.894-2.714-2.444-2.714-1.353,0-2.444,3.936-8.676,9.759-3.395,3.124-7.052,4.617-10.439,4.617a12.287,12.287,0,0,1-10.718-6.511c-7.052-11.522-.812-37.287,5.429-49.227,2.026-3.928,4.338-5.42,6.5-5.42a5.613,5.613,0,0,1,2.583.681c2.165,1.222,3.247,3.657,2.575,6.642q-1.427,7.934-2.444,15.868c-.271,1.894-1.222,10.849.271,11.522C-101.631,143.484-101.77,143.484-99.326,140.1Z" transform="translate(98.057 27.184)" fill="#fcaf3d"/>
    <path id="Path_6" data-name="Path 6" d="M-82.811,125.327c-7.348,29.767-11.841,55.992-20.075,78.347-1.952,5.117-5.486,6.708-8.668,6.011a7.588,7.588,0,0,1-5.839-6.97c-1.345-17.926,7.036-76.477,13.194-86.235a11.823,11.823,0,0,1,12.817-5.248C-85.689,112.477-81,117.676-82.811,125.327Z" transform="translate(161.315 6.585)" fill="#fcaf3d"/>
    <path id="Path_7" data-name="Path 7" d="M-113.827,134.227a3.242,3.242,0,0,0,3.625-.508c2.444-2.23,6.675-6.937,6.626-12.6-.074-7.954-4.863-8.373-6.8-7.741-1.73.574-3.928,2.534-4.428,6.954a.851.851,0,0,1-1.345.6,5.591,5.591,0,0,0-3.608-1.271c-2.558.205-4.453,2.263-3.395,5.625C-122.2,128.3-119.46,131.463-113.827,134.227Z" transform="translate(118.732 22.73)" fill="#fcaf3d"/>
  </g>
</svg>
