<svg id="Group_1247" data-name="Group 1247" xmlns="http://www.w3.org/2000/svg" width="28.431" height="29.093" viewBox="0 0 28.431 29.093">
  <path id="Path_1148" data-name="Path 1148" d="M404.6,1048a1.278,1.278,0,0,1,.879,1.135c.24,1.488.521,2.97.786,4.454a1.106,1.106,0,0,0,.036.111h.359q9.817,0,19.634,0a2.3,2.3,0,0,1,.541.038,1.035,1.035,0,0,1,.689,1.457c-.425,1.079-.862,2.154-1.295,3.231q-1.056,2.625-2.114,5.25a1.19,1.19,0,0,1-1.386.92h-14.6c.078.463.145.9.224,1.326.042.229.03.543.174.656s.456.043.695.043q8.554,0,17.108,0a2.339,2.339,0,0,1,.54.048,1.022,1.022,0,0,1,.784,1.076,1.041,1.041,0,0,1-.987.964c-.067,0-.134.005-.2.005q-9.387,0-18.773-.006a1.618,1.618,0,0,1-.681-.165.985.985,0,0,1-.5-.783q-.725-4.221-1.448-8.442-.775-4.514-1.546-9.028c-.03-.179-.111-.2-.266-.2-1,0-1.99.007-2.985,0a1.048,1.048,0,0,1-.991-.727,1.031,1.031,0,0,1,.389-1.156,3.233,3.233,0,0,1,.4-.207Z" transform="translate(-399.226 -1048)" fill="#ac79af"/>
  <path id="Path_1149" data-name="Path 1149" d="M493.056,1306.81a3.474,3.474,0,1,1-3.461,3.474A3.482,3.482,0,0,1,493.056,1306.81Z" transform="translate(-481.757 -1284.664)" fill="#ac79af"/>
  <path id="Path_1150" data-name="Path 1150" d="M606.486,1310.249a3.472,3.472,0,1,1,3.366,3.513A3.469,3.469,0,0,1,606.486,1310.249Z" transform="translate(-588.508 -1284.672)" fill="#ac79af"/>
</svg>
