<svg id="Group_1249" data-name="Group 1249" xmlns="http://www.w3.org/2000/svg" width="29" height="25.148" viewBox="0 0 29 25.148">
  <path id="Path_1156" data-name="Path 1156" d="M387.761,1046.475v.736c-.1.371-.166.752-.293,1.112a4.2,4.2,0,0,1-7.028,1.6c-.13-.131-.248-.275-.385-.428a4.2,4.2,0,0,1-6.792-.006,4.2,4.2,0,0,1-6.8,0c-.1.117-.17.205-.245.29a4.074,4.074,0,0,1-2.243,1.34,4.2,4.2,0,0,1-4.694-2.281,3.684,3.684,0,0,1-.441-2.54c.505-2.1,1.041-4.188,1.567-6.28a1.82,1.82,0,0,1,1.884-1.473q10.971,0,21.942,0a1.817,1.817,0,0,1,1.885,1.471c.361,1.434.715,2.871,1.078,4.3C387.378,1045.042,387.572,1045.758,387.761,1046.475Z" transform="translate(-358.761 -1038.546)" fill="#009de0"/>
  <path id="Path_1157" data-name="Path 1157" d="M400.665,1233.39h-7.253v7.235h-.319q-3.383,0-6.767,0a1.831,1.831,0,0,1-1.983-1.972q0-4.587,0-9.174v-.235c.515.14,1.006.307,1.511.4a5.617,5.617,0,0,0,4.118-.8.435.435,0,0,1,.525,0,5.992,5.992,0,0,0,6.265,0,.448.448,0,0,1,.525-.006,6,6,0,0,0,6.291,0c.156-.088.265-.146.452-.031a5.775,5.775,0,0,0,5.413.491c.078-.03.157-.056.272-.1v.325q0,4.53,0,9.06a1.845,1.845,0,0,1-2.03,2.038h-7.022Z" transform="translate(-382.529 -1215.478)" fill="#009de0"/>
</svg>
